<mxfile host="app.diagrams.net" modified="2021-08-06T04:02:52.032Z" agent="5.0 (Windows NT 6.3; Win64; x64) AppleWebKit/537.36 (KHTML, like Gecko) Chrome/92.0.4515.131 Safari/537.36" etag="DkgHoznZzSgfTYHB6O1e" version="14.9.4" type="github">
  <diagram id="C5RBs43oDa-KdzZeNtuy" name="Page-1">
    <mxGraphModel dx="868" dy="450" grid="1" gridSize="10" guides="1" tooltips="1" connect="1" arrows="1" fold="1" page="1" pageScale="1" pageWidth="827" pageHeight="1169" math="0" shadow="0">
      <root>
        <mxCell id="WIyWlLk6GJQsqaUBKTNV-0" />
        <mxCell id="WIyWlLk6GJQsqaUBKTNV-1" parent="WIyWlLk6GJQsqaUBKTNV-0" />
        <mxCell id="qFU6kJiqsKWw9SgyE2fp-27" style="edgeStyle=orthogonalEdgeStyle;orthogonalLoop=1;jettySize=auto;html=1;rounded=0;strokeWidth=3;sketch=1;" edge="1" parent="WIyWlLk6GJQsqaUBKTNV-1" source="WIyWlLk6GJQsqaUBKTNV-3" target="qFU6kJiqsKWw9SgyE2fp-5">
          <mxGeometry relative="1" as="geometry">
            <Array as="points">
              <mxPoint x="349" y="115" />
              <mxPoint x="305" y="115" />
            </Array>
          </mxGeometry>
        </mxCell>
        <mxCell id="qFU6kJiqsKWw9SgyE2fp-30" style="edgeStyle=orthogonalEdgeStyle;orthogonalLoop=1;jettySize=auto;html=1;exitX=0.5;exitY=1;exitDx=0;exitDy=0;entryX=0.5;entryY=0;entryDx=0;entryDy=0;rounded=0;strokeWidth=3;sketch=1;" edge="1" parent="WIyWlLk6GJQsqaUBKTNV-1" source="WIyWlLk6GJQsqaUBKTNV-3" target="qFU6kJiqsKWw9SgyE2fp-6">
          <mxGeometry relative="1" as="geometry" />
        </mxCell>
        <mxCell id="qFU6kJiqsKWw9SgyE2fp-32" style="edgeStyle=orthogonalEdgeStyle;orthogonalLoop=1;jettySize=auto;html=1;rounded=0;strokeWidth=3;sketch=1;" edge="1" parent="WIyWlLk6GJQsqaUBKTNV-1" target="qFU6kJiqsKWw9SgyE2fp-7">
          <mxGeometry relative="1" as="geometry">
            <mxPoint x="349" y="115" as="sourcePoint" />
          </mxGeometry>
        </mxCell>
        <mxCell id="qFU6kJiqsKWw9SgyE2fp-33" style="edgeStyle=orthogonalEdgeStyle;orthogonalLoop=1;jettySize=auto;html=1;exitX=0.5;exitY=1;exitDx=0;exitDy=0;rounded=0;strokeWidth=3;sketch=1;" edge="1" parent="WIyWlLk6GJQsqaUBKTNV-1" source="WIyWlLk6GJQsqaUBKTNV-3" target="qFU6kJiqsKWw9SgyE2fp-2">
          <mxGeometry relative="1" as="geometry" />
        </mxCell>
        <mxCell id="qFU6kJiqsKWw9SgyE2fp-34" style="edgeStyle=orthogonalEdgeStyle;orthogonalLoop=1;jettySize=auto;html=1;exitX=0.5;exitY=1;exitDx=0;exitDy=0;rounded=0;strokeWidth=3;sketch=1;" edge="1" parent="WIyWlLk6GJQsqaUBKTNV-1" source="WIyWlLk6GJQsqaUBKTNV-3" target="qFU6kJiqsKWw9SgyE2fp-0">
          <mxGeometry relative="1" as="geometry" />
        </mxCell>
        <mxCell id="qFU6kJiqsKWw9SgyE2fp-35" style="edgeStyle=orthogonalEdgeStyle;orthogonalLoop=1;jettySize=auto;html=1;exitX=0.5;exitY=1;exitDx=0;exitDy=0;entryX=0.5;entryY=0;entryDx=0;entryDy=0;rounded=0;strokeWidth=3;sketch=1;" edge="1" parent="WIyWlLk6GJQsqaUBKTNV-1" source="WIyWlLk6GJQsqaUBKTNV-3" target="qFU6kJiqsKWw9SgyE2fp-4">
          <mxGeometry relative="1" as="geometry" />
        </mxCell>
        <mxCell id="WIyWlLk6GJQsqaUBKTNV-3" value="&lt;font style=&quot;vertical-align: inherit&quot;&gt;&lt;font style=&quot;vertical-align: inherit&quot;&gt;&lt;font style=&quot;vertical-align: inherit&quot;&gt;&lt;font style=&quot;vertical-align: inherit&quot;&gt;&lt;font style=&quot;vertical-align: inherit&quot;&gt;&lt;font style=&quot;vertical-align: inherit ; font-size: 24px&quot;&gt;&lt;b&gt;首頁&lt;/b&gt;&lt;/font&gt;&lt;/font&gt;&lt;/font&gt;&lt;/font&gt;&lt;/font&gt;&lt;/font&gt;" style="rounded=1;whiteSpace=wrap;html=1;fontSize=12;glass=0;strokeWidth=2;shadow=0;fillColor=#dae8fc;strokeColor=#6c8ebf;" parent="WIyWlLk6GJQsqaUBKTNV-1" vertex="1">
          <mxGeometry x="284" y="40" width="130" height="50" as="geometry" />
        </mxCell>
        <mxCell id="qFU6kJiqsKWw9SgyE2fp-36" style="edgeStyle=orthogonalEdgeStyle;rounded=1;orthogonalLoop=1;jettySize=auto;html=1;exitX=0.5;exitY=1;exitDx=0;exitDy=0;strokeWidth=2;shadow=0;sketch=1;" edge="1" parent="WIyWlLk6GJQsqaUBKTNV-1" source="qFU6kJiqsKWw9SgyE2fp-0">
          <mxGeometry relative="1" as="geometry">
            <mxPoint x="80" y="220" as="targetPoint" />
          </mxGeometry>
        </mxCell>
        <mxCell id="qFU6kJiqsKWw9SgyE2fp-0" value="&lt;font style=&quot;vertical-align: inherit&quot;&gt;&lt;font style=&quot;vertical-align: inherit&quot;&gt;&lt;font style=&quot;vertical-align: inherit&quot;&gt;&lt;font style=&quot;vertical-align: inherit&quot;&gt;&lt;font style=&quot;vertical-align: inherit&quot;&gt;&lt;font style=&quot;vertical-align: inherit ; font-size: 18px&quot;&gt;登入&lt;/font&gt;&lt;/font&gt;&lt;/font&gt;&lt;/font&gt;&lt;/font&gt;&lt;/font&gt;" style="rounded=1;whiteSpace=wrap;html=1;strokeWidth=2;fillColor=#dae8fc;strokeColor=#6c8ebf;" vertex="1" parent="WIyWlLk6GJQsqaUBKTNV-1">
          <mxGeometry x="50" y="140" width="60" height="50" as="geometry" />
        </mxCell>
        <mxCell id="qFU6kJiqsKWw9SgyE2fp-2" value="&lt;font style=&quot;vertical-align: inherit&quot;&gt;&lt;font style=&quot;vertical-align: inherit&quot;&gt;&lt;font style=&quot;vertical-align: inherit&quot;&gt;&lt;font style=&quot;vertical-align: inherit&quot;&gt;&lt;font style=&quot;vertical-align: inherit&quot;&gt;&lt;font style=&quot;vertical-align: inherit&quot;&gt;&lt;font style=&quot;vertical-align: inherit&quot;&gt;&lt;font style=&quot;vertical-align: inherit ; font-size: 18px&quot;&gt;註冊&lt;/font&gt;&lt;/font&gt;&lt;/font&gt;&lt;/font&gt;&lt;/font&gt;&lt;/font&gt;&lt;/font&gt;&lt;/font&gt;" style="rounded=1;whiteSpace=wrap;html=1;strokeWidth=2;fillColor=#dae8fc;strokeColor=#6c8ebf;" vertex="1" parent="WIyWlLk6GJQsqaUBKTNV-1">
          <mxGeometry x="120" y="140" width="60" height="50" as="geometry" />
        </mxCell>
        <mxCell id="qFU6kJiqsKWw9SgyE2fp-4" value="&lt;font style=&quot;vertical-align: inherit&quot;&gt;&lt;font style=&quot;vertical-align: inherit&quot;&gt;&lt;font style=&quot;vertical-align: inherit&quot;&gt;&lt;font style=&quot;vertical-align: inherit ; font-size: 18px&quot;&gt;公告&lt;/font&gt;&lt;/font&gt;&lt;/font&gt;&lt;/font&gt;" style="rounded=1;whiteSpace=wrap;html=1;strokeWidth=2;fillColor=#dae8fc;strokeColor=#6c8ebf;" vertex="1" parent="WIyWlLk6GJQsqaUBKTNV-1">
          <mxGeometry x="190" y="140" width="60" height="50" as="geometry" />
        </mxCell>
        <mxCell id="qFU6kJiqsKWw9SgyE2fp-5" value="&lt;font style=&quot;vertical-align: inherit&quot;&gt;&lt;font style=&quot;vertical-align: inherit&quot;&gt;&lt;font style=&quot;vertical-align: inherit&quot;&gt;&lt;font style=&quot;vertical-align: inherit&quot;&gt;&lt;font style=&quot;vertical-align: inherit&quot;&gt;&lt;font style=&quot;vertical-align: inherit ; font-size: 18px&quot;&gt;聯繫我們&lt;/font&gt;&lt;/font&gt;&lt;/font&gt;&lt;/font&gt;&lt;/font&gt;&lt;/font&gt;" style="rounded=1;whiteSpace=wrap;html=1;strokeWidth=2;fillColor=#dae8fc;strokeColor=#6c8ebf;" vertex="1" parent="WIyWlLk6GJQsqaUBKTNV-1">
          <mxGeometry x="260" y="140" width="90" height="50" as="geometry" />
        </mxCell>
        <mxCell id="qFU6kJiqsKWw9SgyE2fp-6" value="&lt;font style=&quot;vertical-align: inherit&quot;&gt;&lt;font style=&quot;vertical-align: inherit&quot;&gt;&lt;font style=&quot;vertical-align: inherit&quot;&gt;&lt;font style=&quot;vertical-align: inherit&quot;&gt;&lt;font style=&quot;vertical-align: inherit&quot;&gt;&lt;font style=&quot;vertical-align: inherit&quot;&gt;&lt;font style=&quot;vertical-align: inherit&quot;&gt;&lt;font style=&quot;vertical-align: inherit&quot;&gt;&lt;font style=&quot;vertical-align: inherit&quot;&gt;&lt;font style=&quot;vertical-align: inherit&quot;&gt;&lt;font style=&quot;vertical-align: inherit&quot;&gt;&lt;font style=&quot;vertical-align: inherit&quot;&gt;&lt;font style=&quot;vertical-align: inherit&quot;&gt;&lt;font style=&quot;vertical-align: inherit&quot;&gt;&lt;font style=&quot;vertical-align: inherit&quot;&gt;&lt;font style=&quot;vertical-align: inherit&quot;&gt;&lt;font style=&quot;vertical-align: inherit&quot;&gt;&lt;font style=&quot;vertical-align: inherit ; font-size: 18px&quot;&gt;回報走失浪浪&lt;/font&gt;&lt;/font&gt;&lt;/font&gt;&lt;/font&gt;&lt;/font&gt;&lt;/font&gt;&lt;/font&gt;&lt;/font&gt;&lt;/font&gt;&lt;/font&gt;&lt;/font&gt;&lt;/font&gt;&lt;/font&gt;&lt;/font&gt;&lt;/font&gt;&lt;/font&gt;&lt;/font&gt;&lt;/font&gt;" style="rounded=1;whiteSpace=wrap;html=1;strokeWidth=2;fillColor=#dae8fc;strokeColor=#6c8ebf;" vertex="1" parent="WIyWlLk6GJQsqaUBKTNV-1">
          <mxGeometry x="360" y="140" width="130" height="50" as="geometry" />
        </mxCell>
        <mxCell id="qFU6kJiqsKWw9SgyE2fp-7" value="&lt;font style=&quot;vertical-align: inherit&quot;&gt;&lt;font style=&quot;vertical-align: inherit&quot;&gt;&lt;font style=&quot;vertical-align: inherit&quot;&gt;&lt;font style=&quot;vertical-align: inherit&quot;&gt;&lt;font style=&quot;vertical-align: inherit&quot;&gt;&lt;font style=&quot;vertical-align: inherit&quot;&gt;&lt;font style=&quot;vertical-align: inherit&quot;&gt;&lt;font style=&quot;vertical-align: inherit&quot;&gt;&lt;font style=&quot;vertical-align: inherit&quot;&gt;&lt;font style=&quot;vertical-align: inherit&quot;&gt;&lt;font style=&quot;vertical-align: inherit&quot;&gt;&lt;font style=&quot;vertical-align: inherit ; font-size: 18px&quot;&gt;&lt;font style=&quot;vertical-align: inherit&quot;&gt;&lt;font style=&quot;vertical-align: inherit&quot;&gt;&lt;font style=&quot;vertical-align: inherit&quot;&gt;&lt;font style=&quot;vertical-align: inherit&quot;&gt;&lt;font style=&quot;vertical-align: inherit&quot;&gt;&lt;font style=&quot;vertical-align: inherit&quot;&gt;&lt;font style=&quot;vertical-align: inherit&quot;&gt;&lt;font style=&quot;vertical-align: inherit&quot;&gt;查詢可領養浪浪&lt;/font&gt;&lt;/font&gt;&lt;/font&gt;&lt;/font&gt;&lt;/font&gt;&lt;/font&gt;&lt;/font&gt;&lt;/font&gt;&lt;/font&gt;&lt;/font&gt;&lt;/font&gt;&lt;/font&gt;&lt;/font&gt;&lt;/font&gt;&lt;/font&gt;&lt;/font&gt;&lt;/font&gt;&lt;/font&gt;&lt;/font&gt;&lt;/font&gt;" style="rounded=1;whiteSpace=wrap;html=1;strokeWidth=2;fillColor=#dae8fc;strokeColor=#6c8ebf;" vertex="1" parent="WIyWlLk6GJQsqaUBKTNV-1">
          <mxGeometry x="500" y="140" width="150" height="50" as="geometry" />
        </mxCell>
        <mxCell id="qFU6kJiqsKWw9SgyE2fp-37" value="&lt;font style=&quot;font-size: 14px&quot;&gt;忘記密碼&lt;/font&gt;" style="rounded=1;whiteSpace=wrap;html=1;strokeWidth=2;fillColor=#dae8fc;strokeColor=#6c8ebf;" vertex="1" parent="WIyWlLk6GJQsqaUBKTNV-1">
          <mxGeometry x="40" y="220" width="80" height="30" as="geometry" />
        </mxCell>
        <mxCell id="qFU6kJiqsKWw9SgyE2fp-45" style="edgeStyle=orthogonalEdgeStyle;rounded=1;sketch=1;orthogonalLoop=1;jettySize=auto;html=1;exitX=0.5;exitY=1;exitDx=0;exitDy=0;shadow=0;strokeWidth=2;" edge="1" parent="WIyWlLk6GJQsqaUBKTNV-1" source="qFU6kJiqsKWw9SgyE2fp-39" target="qFU6kJiqsKWw9SgyE2fp-44">
          <mxGeometry relative="1" as="geometry" />
        </mxCell>
        <mxCell id="qFU6kJiqsKWw9SgyE2fp-46" style="edgeStyle=orthogonalEdgeStyle;rounded=1;sketch=1;orthogonalLoop=1;jettySize=auto;html=1;exitX=0.5;exitY=1;exitDx=0;exitDy=0;shadow=0;strokeWidth=2;" edge="1" parent="WIyWlLk6GJQsqaUBKTNV-1" source="qFU6kJiqsKWw9SgyE2fp-39" target="qFU6kJiqsKWw9SgyE2fp-43">
          <mxGeometry relative="1" as="geometry" />
        </mxCell>
        <mxCell id="qFU6kJiqsKWw9SgyE2fp-48" style="edgeStyle=orthogonalEdgeStyle;rounded=1;sketch=1;orthogonalLoop=1;jettySize=auto;html=1;shadow=0;strokeWidth=2;" edge="1" parent="WIyWlLk6GJQsqaUBKTNV-1" source="qFU6kJiqsKWw9SgyE2fp-39" target="qFU6kJiqsKWw9SgyE2fp-42">
          <mxGeometry relative="1" as="geometry" />
        </mxCell>
        <mxCell id="qFU6kJiqsKWw9SgyE2fp-39" value="&lt;font style=&quot;font-size: 18px&quot;&gt;&lt;b&gt;&lt;br&gt;&lt;br&gt;使用者&lt;/b&gt;&lt;br&gt;&lt;/font&gt;" style="shape=actor;whiteSpace=wrap;html=1;strokeWidth=2;fillColor=#dae8fc;strokeColor=#6c8ebf;" vertex="1" parent="WIyWlLk6GJQsqaUBKTNV-1">
          <mxGeometry x="180" y="280" width="60" height="90" as="geometry" />
        </mxCell>
        <mxCell id="qFU6kJiqsKWw9SgyE2fp-42" value="&lt;font style=&quot;vertical-align: inherit&quot;&gt;&lt;font style=&quot;vertical-align: inherit&quot;&gt;&lt;font style=&quot;vertical-align: inherit&quot;&gt;&lt;font style=&quot;vertical-align: inherit&quot;&gt;&lt;font style=&quot;vertical-align: inherit&quot;&gt;&lt;font style=&quot;vertical-align: inherit ; font-size: 18px&quot;&gt;查看通報紀錄&lt;/font&gt;&lt;/font&gt;&lt;/font&gt;&lt;/font&gt;&lt;/font&gt;&lt;/font&gt;" style="rounded=1;whiteSpace=wrap;html=1;strokeWidth=2;fillColor=#dae8fc;strokeColor=#6c8ebf;" vertex="1" parent="WIyWlLk6GJQsqaUBKTNV-1">
          <mxGeometry x="145" y="440" width="130" height="50" as="geometry" />
        </mxCell>
        <mxCell id="qFU6kJiqsKWw9SgyE2fp-43" value="&lt;font style=&quot;vertical-align: inherit&quot;&gt;&lt;font style=&quot;vertical-align: inherit&quot;&gt;&lt;font style=&quot;vertical-align: inherit&quot;&gt;&lt;font style=&quot;vertical-align: inherit&quot;&gt;&lt;font style=&quot;vertical-align: inherit&quot;&gt;&lt;font style=&quot;vertical-align: inherit ; font-size: 18px&quot;&gt;收藏待認養浪浪&lt;/font&gt;&lt;/font&gt;&lt;/font&gt;&lt;/font&gt;&lt;/font&gt;&lt;/font&gt;" style="rounded=1;whiteSpace=wrap;html=1;strokeWidth=2;fillColor=#dae8fc;strokeColor=#6c8ebf;" vertex="1" parent="WIyWlLk6GJQsqaUBKTNV-1">
          <mxGeometry x="300" y="440" width="130" height="50" as="geometry" />
        </mxCell>
        <mxCell id="qFU6kJiqsKWw9SgyE2fp-61" value="" style="edgeStyle=orthogonalEdgeStyle;rounded=1;sketch=1;orthogonalLoop=1;jettySize=auto;html=1;shadow=0;strokeWidth=2;" edge="1" parent="WIyWlLk6GJQsqaUBKTNV-1" source="qFU6kJiqsKWw9SgyE2fp-44" target="qFU6kJiqsKWw9SgyE2fp-60">
          <mxGeometry relative="1" as="geometry" />
        </mxCell>
        <mxCell id="qFU6kJiqsKWw9SgyE2fp-44" value="&lt;span style=&quot;font-size: 18px&quot;&gt;我的帳戶&lt;/span&gt;" style="rounded=1;whiteSpace=wrap;html=1;strokeWidth=2;fillColor=#dae8fc;strokeColor=#6c8ebf;" vertex="1" parent="WIyWlLk6GJQsqaUBKTNV-1">
          <mxGeometry x="10" y="440" width="110" height="50" as="geometry" />
        </mxCell>
        <mxCell id="qFU6kJiqsKWw9SgyE2fp-57" style="edgeStyle=orthogonalEdgeStyle;rounded=1;sketch=1;orthogonalLoop=1;jettySize=auto;html=1;exitX=0.5;exitY=1;exitDx=0;exitDy=0;entryX=0.5;entryY=0;entryDx=0;entryDy=0;shadow=0;strokeWidth=2;" edge="1" parent="WIyWlLk6GJQsqaUBKTNV-1" source="qFU6kJiqsKWw9SgyE2fp-50" target="qFU6kJiqsKWw9SgyE2fp-54">
          <mxGeometry relative="1" as="geometry" />
        </mxCell>
        <mxCell id="qFU6kJiqsKWw9SgyE2fp-50" value="&lt;font style=&quot;font-size: 18px&quot;&gt;&lt;b&gt;&lt;br&gt;&lt;br&gt;管理員&lt;/b&gt;&lt;br&gt;&lt;/font&gt;" style="shape=actor;whiteSpace=wrap;html=1;strokeWidth=2;fillColor=#dae8fc;strokeColor=#6c8ebf;" vertex="1" parent="WIyWlLk6GJQsqaUBKTNV-1">
          <mxGeometry x="650" y="290" width="60" height="90" as="geometry" />
        </mxCell>
        <mxCell id="qFU6kJiqsKWw9SgyE2fp-51" style="edgeStyle=orthogonalEdgeStyle;rounded=1;sketch=1;orthogonalLoop=1;jettySize=auto;html=1;exitX=0.5;exitY=1;exitDx=0;exitDy=0;shadow=0;strokeWidth=2;" edge="1" parent="WIyWlLk6GJQsqaUBKTNV-1" target="qFU6kJiqsKWw9SgyE2fp-56">
          <mxGeometry relative="1" as="geometry">
            <mxPoint x="680" y="400" as="sourcePoint" />
          </mxGeometry>
        </mxCell>
        <mxCell id="qFU6kJiqsKWw9SgyE2fp-52" style="edgeStyle=orthogonalEdgeStyle;rounded=1;sketch=1;orthogonalLoop=1;jettySize=auto;html=1;exitX=0.5;exitY=1;exitDx=0;exitDy=0;shadow=0;strokeWidth=2;" edge="1" parent="WIyWlLk6GJQsqaUBKTNV-1" target="qFU6kJiqsKWw9SgyE2fp-55">
          <mxGeometry relative="1" as="geometry">
            <mxPoint x="680" y="400" as="sourcePoint" />
          </mxGeometry>
        </mxCell>
        <mxCell id="qFU6kJiqsKWw9SgyE2fp-53" style="edgeStyle=orthogonalEdgeStyle;rounded=1;sketch=1;orthogonalLoop=1;jettySize=auto;html=1;shadow=0;strokeWidth=2;" edge="1" parent="WIyWlLk6GJQsqaUBKTNV-1" target="qFU6kJiqsKWw9SgyE2fp-54">
          <mxGeometry relative="1" as="geometry">
            <mxPoint x="680" y="400" as="sourcePoint" />
          </mxGeometry>
        </mxCell>
        <mxCell id="qFU6kJiqsKWw9SgyE2fp-54" value="&lt;span style=&quot;font-size: 18px&quot;&gt;公告管理&lt;/span&gt;" style="rounded=1;whiteSpace=wrap;html=1;strokeWidth=2;fillColor=#dae8fc;strokeColor=#6c8ebf;" vertex="1" parent="WIyWlLk6GJQsqaUBKTNV-1">
          <mxGeometry x="615" y="440" width="130" height="50" as="geometry" />
        </mxCell>
        <mxCell id="qFU6kJiqsKWw9SgyE2fp-55" value="&lt;span style=&quot;font-size: 18px&quot;&gt;待認養浪浪管理&lt;br&gt;&lt;/span&gt;" style="rounded=1;whiteSpace=wrap;html=1;strokeWidth=2;fillColor=#dae8fc;strokeColor=#6c8ebf;" vertex="1" parent="WIyWlLk6GJQsqaUBKTNV-1">
          <mxGeometry x="770" y="440" width="130" height="50" as="geometry" />
        </mxCell>
        <mxCell id="qFU6kJiqsKWw9SgyE2fp-56" value="&lt;font style=&quot;vertical-align: inherit&quot;&gt;&lt;font style=&quot;vertical-align: inherit&quot;&gt;&lt;font style=&quot;vertical-align: inherit&quot;&gt;&lt;font style=&quot;vertical-align: inherit&quot;&gt;&lt;font style=&quot;vertical-align: inherit&quot;&gt;&lt;font style=&quot;vertical-align: inherit ; font-size: 18px&quot;&gt;用戶管理&lt;/font&gt;&lt;/font&gt;&lt;/font&gt;&lt;/font&gt;&lt;/font&gt;&lt;/font&gt;" style="rounded=1;whiteSpace=wrap;html=1;strokeWidth=2;fillColor=#dae8fc;strokeColor=#6c8ebf;" vertex="1" parent="WIyWlLk6GJQsqaUBKTNV-1">
          <mxGeometry x="480" y="440" width="110" height="50" as="geometry" />
        </mxCell>
        <mxCell id="qFU6kJiqsKWw9SgyE2fp-60" value="&lt;font style=&quot;font-size: 14px&quot;&gt;基本資料修改&lt;/font&gt;" style="rounded=1;whiteSpace=wrap;html=1;strokeWidth=2;fillColor=#dae8fc;strokeColor=#6c8ebf;" vertex="1" parent="WIyWlLk6GJQsqaUBKTNV-1">
          <mxGeometry x="17.5" y="520" width="95" height="40" as="geometry" />
        </mxCell>
      </root>
    </mxGraphModel>
  </diagram>
</mxfile>
